inDegrees=no
num_controls=7
num_derivatives=13
num_iterations=174
num_multipliers=7
num_parameters=0
num_slacks=7
num_states=26
objective=0.483504
objective_accelerations=0.001604
objective_balance=0.004534
objective_effort=0.014121
objective_height=0.442552
objective_ligament=0.020692
solver_duration=1858.278849
status=Solve_Succeeded
success=true
DataType=double
version=3
OpenSimVersion=4.5
endheader
time	/jointset/ground_pelvis/pelvis_tilt/value	/jointset/ground_pelvis/pelvis_tx/value	/jointset/ground_pelvis/pelvis_ty/value	/jointset/hip_r/hip_flexion_r/value	/jointset/hip_r/hip_adduction_r/value	/jointset/hip_r/hip_rotation_r/value	/jointset/back/lumbar_extension/value	/jointset/patellofemoral_r/patellar_flexion_r/value	/jointset/knee_r/knee_flexion_r/value	/jointset/knee_r/knee_adduction_r/value	/jointset/knee_r/knee_rotation_r/value	/jointset/ankle_r/ankle_angle_r/value	/jointset/subtalar_r/subtalar_angle_r/value	/jointset/ground_pelvis/pelvis_tilt/speed	/jointset/ground_pelvis/pelvis_tx/speed	/jointset/ground_pelvis/pelvis_ty/speed	/jointset/hip_r/hip_flexion_r/speed	/jointset/hip_r/hip_adduction_r/speed	/jointset/hip_r/hip_rotation_r/speed	/jointset/back/lumbar_extension/speed	/jointset/patellofemoral_r/patellar_flexion_r/speed	/jointset/knee_r/knee_flexion_r/speed	/jointset/knee_r/knee_adduction_r/speed	/jointset/knee_r/knee_rotation_r/speed	/jointset/ankle_r/ankle_angle_r/speed	/jointset/subtalar_r/subtalar_angle_r/speed	/forceset/tau_hip_flexion_r	/forceset/tau_hip_adduction_r	/forceset/tau_hip_rotation_r	/forceset/tau_knee_flexion_r	/forceset/tau_ankle_angle_r	/forceset/tau_subtalar_angle_r	/forceset/tau_lumbar_extension	lambda_cid13_p0	lambda_cid14_p0	lambda_cid14_p1	lambda_cid14_p2	lambda_cid14_p3	lambda_cid14_p4	lambda_cid14_p5	/jointset/ground_pelvis/pelvis_tilt/accel	/jointset/ground_pelvis/pelvis_tx/accel	/jointset/ground_pelvis/pelvis_ty/accel	/jointset/hip_r/hip_flexion_r/accel	/jointset/hip_r/hip_adduction_r/accel	/jointset/hip_r/hip_rotation_r/accel	/jointset/back/lumbar_extension/accel	/jointset/patellofemoral_r/patellar_flexion_r/accel	/jointset/knee_r/knee_flexion_r/accel	/jointset/knee_r/knee_adduction_r/accel	/jointset/knee_r/knee_rotation_r/accel	/jointset/ankle_r/ankle_angle_r/accel	/jointset/subtalar_r/subtalar_angle_r/accel	gamma_cid13_p0	gamma_cid14_p0	gamma_cid14_p1	gamma_cid14_p2	gamma_cid14_p3	gamma_cid14_p4	gamma_cid14_p5
1.5	-0.01772366576868773	0.124558031660373	0.9493691460834113	0.1392494285272255	-0.06711989756182198	0.02177464689872732	-0.01604715866449302	0.01925314419139513	0.0192531441914008	-0.1744494085461465	-0.1716259852449835	0.05954823937217259	0.1824485338417624	0.04251964408629239	-0.06119475934971327	0.003460386923810843	0.008587205127163376	0.0009161221802841331	0.02224750219309268	0.1131022945936908	-0.03251281345478418	-0.03251281345478679	5.610629639744441e-05	-0.00836834599685316	-0.08995834301852494	-0.03368399449084419	0.09838305395083574	-0.02843801259167441	0.04730424759634703	-0.1565983751024499	0.1107435760535166	-0.006647381718721737	-0.01802338862096232	-33.29007824512717	-10.0561704176241	-12.98240844853325	12.04993749135781	6.712551511865192	-694.5709199037353	59.6174394001463	0.08231365940350449	-0.08687999720035167	-0.001323616674983989	0.04716025363823628	0.0002184269880923592	0.01774740144451953	0.01968678285867206	0.06104892926414111	0.06104892926414118	8.679216988479409e-05	-0.003517476121204759	-0.07236735114926958	-0.02333135710313726	1.925723122535888e-11	-2.533521267015533e-11	4.773402066770094e-11	4.759332891871851e-11	1.753505515625051e-10	3.272856473839071e-10	-8.160744582797024e-10
1.51	-0.01729437207931368	0.1239418255379124	0.9494036828229843	0.1393375486579317	-0.06711071855451033	0.02199797673504418	-0.01491529325624811	0.01893101543575707	0.01893101543575654	-0.1744488594654451	-0.1717098360886513	0.05864511863705103	0.1821105681026343	0.0433339462724265	-0.06203829045503384	0.00344637187399899	0.009033755241761945	0.0009195629758010374	0.02241518571385954	0.1132599589214403	-0.0319111084259586	-0.03191110842596086	5.372993711685293e-05	-0.00840054935641836	-0.09065494013201501	-0.03390494872564755	0.09964744194131708	-0.02856076647921415	0.047746572556216	-0.1587953238106698	0.1141914427766197	-0.006392875035919279	-0.01902951619762654	-33.2760628453154	-8.943454151068895	-12.88009812463175	12.2655589172898	6.278582752500212	-694.5737336525323	59.69642706001871	0.08021639303682683	-0.08186342854680724	-0.001528753858734263	0.04294254958863263	0.0003896080223952889	0.01578690786541415	0.01218203759326121	0.06000567242845693	0.060005672428441	-0.0003967511685563796	-0.00288078373016208	-0.06667632122400013	-0.02084675126628326	2.099111346882108e-11	-2.355312589934416e-11	5.406248045919357e-11	4.025417653161234e-11	1.76703723161135e-10	3.18490414022665e-10	-8.118141485743367e-10
1.52	-0.0168570897891095	0.1233174293521287	0.9494380617511133	0.1394300423216318	-0.06710150859880443	0.0222228850226655	-0.01378217604875195	0.01861495860694452	0.01861495860695132	-0.1744483335285862	-0.1717939707695225	0.0577353578448405	0.1817705189622385	0.04411736425131331	-0.06283277201436235	0.003428824635057798	0.009461911725069511	0.000922311858882617	0.02256319245353322	0.1133526544436068	-0.03129842808766978	-0.03129842808767167	5.147753018106137e-05	-0.008425113430217967	-0.09128635443651099	-0.03410067474434667	0.1009118299318006	-0.02868352036677373	0.0481888975158949	-0.1609922725189355	0.1176393094997198	-0.006138368353137215	-0.02003564377428125	-33.26231798094023	-7.830753570849999	-12.77779436815242	12.48118575411405	5.848120928220621	-694.574551546126	59.77510775363975	0.0761368179540006	-0.07707008800191652	-0.002030054500853383	0.04348152738003125	8.004450103604149e-05	0.01381204522586225	0.006693021742046814	0.06324399115676343	0.0632439911567643	0.0001115826388271939	-0.001989618968071956	-0.05933078935043806	-0.01828571388227271	2.268671851618593e-11	-2.149589928624224e-11	6.230033965100315e-11	3.294096731447196e-11	1.774308025349652e-10	3.113412437875685e-10	-8.031699555662818e-10
1.53	-0.01641213164573373	0.1226853343779919	0.9494722476969072	0.1395267272290804	-0.06709227376496553	0.02244917352943283	-0.0126484597141135	0.01830508009251439	0.01830508009251106	-0.1744478308677933	-0.1718783113853156	0.05681960790465235	0.1814286389287171	0.04486888866321378	-0.06357796248273304	0.003407800529985401	0.009872101182213345	0.0009245702671626055	0.02269126301205928	0.1133792486427408	-0.030675534064703	-0.03067553406470373	4.90303913542551e-05	-0.008441751938953143	-0.0918527321682885	-0.03427112016804791	0.1022019566877067	-0.02879944075869537	0.04864214178935016	-0.1632454989261515	0.1211639415958314	-0.005883840378020928	-0.02105982809929078	-33.24884705208423	-6.694110470511906	-12.67606018067847	12.70235300068118	5.405821727111016	-694.5813295063833	59.8506062731206	0.07385391265000238	-0.07200444117204528	-0.002223126957441202	0.03934239407032524	0.0002861900559152556	0.01181765920907953	-0.001061957259820934	0.06207321301030187	0.06207321301041	-0.0004264119629275019	-0.001312326242845046	-0.05365606067861359	-0.01579217243985098	2.434165404269734e-11	-1.91463365907064e-11	7.256693570564949e-11	2.565532271542023e-11	1.774926589199456e-10	3.059410156240018e-10	-7.898678865491195e-10
1.54	-0.01595981952626555	0.1220460353161876	0.9495062064939601	0.1396274249789431	-0.06708301885683028	0.02267664536139547	-0.01151481835273333	0.01800148273932824	0.01800148273933377	-0.1744473533883666	-0.1719627806581271	0.05589852122802946	0.1810851807977933	0.04558815946880744	-0.06427358954785098	0.003383394886884751	0.01026448020689966	0.0009263267180248233	0.02279985749231155	0.1133376597915293	-0.03004219583599401	-0.03004219583599358	4.644125975216192e-05	-0.008450844824346864	-0.09235370172355528	-0.03441629422478259	0.1034920834436178	-0.0289153611506271	0.04909538606255955	-0.1654987253334287	0.1246885736919369	-0.005629312402914236	-0.02208401242428429	-33.23565664170252	-5.557433678049046	-12.57433388933226	12.92353726334531	4.966212139272185	-694.5858387901429	59.92572596572727	0.06968609669260678	-0.06715740735135771	-0.002706362106505104	0.039919440888526	-2.034698250931888e-05	0.00991682957107811	-0.006943588327062654	0.06533283230517799	0.06533283230517815	8.318408375261615e-05	-0.0004804942997594214	-0.0462491540482896	-0.01323144048894966	2.602750281154496e-11	-1.65577176197718e-11	8.134965018838891e-11	1.744044295818754e-11	1.77376406686698e-10	2.993403234160749e-10	-7.78365357034779e-10
1.55	-0.01550048720755131	0.1214000381303315	0.9495399041348641	0.1397319553314088	-0.06707374812480456	0.02290510322618154	-0.01038193742147536	0.01770426723101304	0.01770426723100306	-0.174446904211081	-0.1720473026479245	0.05497276207514352	0.1807404016433055	0.0462720013997087	-0.06491654532979753	0.003355566430127678	0.01063829678243432	0.0009277445691473977	0.02288839374407776	0.1132265207188143	-0.02939930334694193	-0.02939930334694129	4.332207132691401e-05	-0.008452404545163163	-0.09278607955562639	-0.03453492200213069	0.1048561852287955	-0.02902504729854599	0.04957887069399454	-0.1679082871123266	0.1284414379461511	-0.00536608502568763	-0.02315857248814612	-33.22275030776231	-4.34747793027464	-12.47010460754522	13.16043466777943	4.473036897519452	-694.5990557074666	59.99771485089102	0.0667878358492041	-0.0614692841938399	-0.002906059643897352	0.03561876837109124	0.0002117300129075186	0.007823742447568409	-0.01499992797672576	0.06400782371390469	0.06400782371387714	-0.0005202032039032967	0.0001785459912563205	-0.03992471273221963	-0.01048623054028827	2.774896901177994e-11	-1.369366424457342e-11	8.842267503393135e-11	8.154922692615958e-12	1.770549423498399e-10	2.913564878526897e-10	-7.689362099910804e-10
